<svg width="169" height="24" viewBox="0 0 169 24" fill="none" xmlns="http://www.w3.org/2000/svg">
<g clip-path="url(#clip0_9332_24592)">
<path d="M160.908 9.93623C157.886 8.88984 156.55 8.19262 156.55 6.62415C156.55 5.63577 157.189 4.12531 160.211 4.12531C163.058 4.12531 166.08 5.40374 166.08 5.40374V1.04527C164.802 0.522079 162.535 0 159.978 0C155.62 0 151.436 2.3237 151.436 6.91531C151.436 11.5069 155.621 12.7842 158.469 13.7146C161.142 14.5859 162.943 15.4582 162.943 17.2007C162.943 18.7123 161.897 19.8736 158.469 19.8736C155.563 19.8736 152.075 18.7123 152.075 18.7123V23.0696C152.075 23.0696 155.446 24 158.701 24C163.001 24 168.057 22.4884 168.057 16.8515C168.057 13.0163 164.919 11.3307 160.91 9.93623H160.908Z" fill="#000835"/>
<path d="M51.3713 23.7088V0H44.8052L38.355 17.6659L31.9038 0H25.3376V23.7088H29.8121V5.81091L36.3203 23.7077H40.0975L46.8968 5.81091V23.7077H51.3713V23.7088Z" fill="#000835"/>
<path d="M67.0591 0H58.4013V4.5905C62.5278 4.41647 63.6891 4.35846 65.4907 4.35846C68.3376 4.35846 70.0232 5.40374 70.0232 8.19373V9.99535H65.4907C57.8781 9.99535 55.5544 13.0754 55.5544 17.0847C55.5544 22.2564 59.3897 24 63.225 24C67.0603 24 69.3851 22.1984 70.1403 21.6752V23.7088H75.138V7.4954C75.138 2.03254 72.1751 0 67.0603 0H67.0591ZM70.0232 18.6532C68.7447 19.1183 66.4199 19.9316 64.2122 19.9316C62.1206 19.9316 60.435 19.0023 60.435 16.7355C60.435 14.7008 61.7134 13.6555 64.5023 13.5395L70.0232 13.3063V18.6532Z" fill="#000835"/>
<path d="M110.701 4.06731H122.671V0H105.586V23.7088H122.671V19.6415H110.701V13.8875H120.869V9.87822H110.701V4.06731Z" fill="#000835"/>
<path d="M147.311 23.7088V0H142.081V18.072C140.803 18.6532 139.001 19.5835 136.386 19.5835C133.132 19.5835 132.145 17.7819 132.145 13.9466V0H126.914V14.5859C126.914 20.6879 128.89 24 135.108 24C138.595 24 140.339 22.7216 142.197 21.6752V23.7088H147.311Z" fill="#000835"/>
<path d="M89.7229 0H80.3098V23.7088H89.7229C97.6846 23.7088 101.694 20.0476 101.694 11.6229C101.694 4.24245 97.3354 0.00111555 89.7229 0.00111555V0ZM89.4897 19.5824H85.5384V4.12531H89.4897C93.4421 4.12531 96.347 6.04295 96.347 11.6218C96.347 17.2007 94.4294 19.5824 89.4897 19.5824Z" fill="#000835"/>
<path d="M11.5058 0H2.84801V4.5905C6.97332 4.41647 8.13573 4.35846 9.93734 4.35846C12.7842 4.35846 14.4698 5.40374 14.4698 8.19373V9.99535H9.93734C2.32481 9.99535 0 13.0754 0 17.0847C0 22.2564 3.83527 24 7.67054 24C11.5058 24 13.8306 22.1984 14.5859 21.6752V23.7088H19.5835V7.4954C19.5835 2.03365 16.6195 0 11.5058 0ZM14.4698 18.6532C13.1914 19.1183 10.8666 19.9316 8.65892 19.9316C6.56726 19.9316 4.88166 19.0023 4.88166 16.7355C4.88166 14.7008 6.16008 13.6555 8.94896 13.5395L14.4698 13.3063V18.6532Z" fill="#000835"/>
</g>
<defs>
<clipPath id="clip0_9332_24592">
<rect width="168.056" height="24" fill="white"/>
</clipPath>
</defs>
</svg>
