<svg xmlns="http://www.w3.org/2000/svg" width="1889.76" height="1889.76" xmlns:v="https://vecta.io/nano"><defs><clipPath ><path d="M24.84 1371.6h743.28V628.563H24.84z" transform="matrix(1.333333 0 0 -1.333333 0 1889.76)"/></clipPath><clipPath ><path d="M24.84 1371.6h743.28V628.563H24.84z" transform="matrix(1.333333 0 0 -1.333333 0 1889.76)"/></clipPath><clipPath id="C"><path d="M24.84 1371.6h743.28V628.563H24.84z" transform="translate(-754.909 -998.108)"/></clipPath><clipPath id="D"><path d="M0 1417.323h1417.323V0H0z" transform="matrix(1.333333 0 0 -1.333333 0 1889.76)"/></clipPath><clipPath ><path d="M76.92 1214.4h1020.72V193.683H76.92z" transform="matrix(1.333333 0 0 -1.333333 0 1889.76)"/></clipPath><clipPath ><path d="M76.92 1214.4h1020.72V193.683H76.92z" transform="matrix(1.333333 0 0 -1.333333 0 1889.76)"/></clipPath><clipPath id="G"><path d="M76.92 1214.4h1020.72V193.683H76.92z" transform="translate(-1075.453 -711.054)"/></clipPath><clipPath id="H"><path d="M0 1417.323h1417.323V0H0z" transform="matrix(1.333333 0 0 -1.333333 0 1889.76)"/></clipPath><clipPath ><path d="M376.92 1061.28H1397.4V40.563H376.92z" transform="matrix(1.333333 0 0 -1.333333 0 1889.76)"/></clipPath><clipPath ><path d="M376.92 1061.28H1397.4V40.563H376.92z" transform="matrix(1.333333 0 0 -1.333333 0 1889.76)"/></clipPath><clipPath id="K"><path d="M376.92 1061.28H1397.4V40.563H376.92z" transform="translate(-1375.264 -557.958)"/></clipPath><clipPath id="L"><path d="M0 1417.323h1417.323V0H0z" transform="matrix(1.333333 0 0 -1.333333 0 1889.76)"/></clipPath><clipPath ><path d="M808.92 1353.12h553.44V799.683H808.92z" transform="matrix(1.333333 0 0 -1.333333 0 1889.76)"/></clipPath><clipPath ><path d="M808.92 1353.12h553.44V799.683H808.92z" transform="matrix(1.333333 0 0 -1.333333 0 1889.76)"/></clipPath><clipPath id="O"><path d="M808.92 1353.12h553.44V799.683H808.92z" transform="translate(-1340.18 -1083.426)"/></clipPath><clipPath id="P"><path d="M0 1417.323h1417.323V0H0z" transform="matrix(1.333333 0 0 -1.333333 0 1889.76)"/></clipPath><clipPath ><path d="M181.8 431.283h362.64V68.643H181.8z" transform="matrix(1.333333 0 0 -1.333333 0 1889.76)"/></clipPath><clipPath ><path d="M181.8 431.283h362.64V68.643H181.8z" transform="matrix(1.333333 0 0 -1.333333 0 1889.76)"/></clipPath><clipPath id="S"><path d="M181.8 431.283h362.64V68.643H181.8z" transform="translate(-522.403 -256.972)"/></clipPath><clipPath id="T"><path d="M0 1417.323h1417.323V0H0z" transform="matrix(1.333333 0 0 -1.333333 0 1889.76)"/></clipPath><clipPath id="U"><path d="M0 1417.323h1417.323V0H0z" transform="translate(-1094.289 -617.804)"/></clipPath><clipPath id="V"><path d="M0 1417.323h1417.323V0H0z" transform="translate(-1210.751 -650.285)"/></clipPath><clipPath id="W"><path d="M0 1417.323h1417.323V0H0z" transform="translate(-1211.577 -735.092)"/></clipPath><clipPath id="X"><path d="M0 1417.323h1417.323V0H0z" transform="translate(-1093.463 -767.573)"/></clipPath><clipPath id="Y"><path d="M0 1417.323h1417.323V0H0z" transform="translate(-1033.557 -684.805)"/></clipPath><clipPath id="Z"><path d="M0 1417.323h1417.323V0H0z" transform="translate(-577.419 -782.81)"/></clipPath><clipPath id="a"><path d="M0 1417.323h1417.323V0H0z" transform="translate(-806.618 -644.593)"/></clipPath><clipPath id="b"><path d="M0 1417.323h1417.323V0H0z" transform="translate(-463.958 -602.505)"/></clipPath><clipPath id="c"><path d="M0 1417.323h1417.323V0H0z" transform="translate(-210.842 -738.266)"/></clipPath><clipPath id="d"><path d="M0 1417.323h1417.323V0H0z" transform="translate(-791.918 -662.062)"/></clipPath><clipPath id="e"><path d="M0 1417.323h1417.323V0H0z" transform="translate(-562.719 -800.279)"/></clipPath><clipPath id="f"><path d="M0 1417.323h1417.323V0H0z" transform="translate(-449.259 -619.974)"/></clipPath><clipPath id="g"><path d="M0 1417.323h1417.323V0H0z" transform="translate(-196.142 -755.734)"/></clipPath><path id="h" d="M0 0c0-273.474-221.694-495.168-495.168-495.168S-990.336-273.474-990.336 0s221.694 495.168 495.168 495.168S0 273.474 0 0"/><path id="i" d="M0 0l63.158 63.158c4.223 4.223 11.135 4.223 15.359 0l12.839-12.84c4.224-4.223 4.224-11.135 0-15.359L28.198-28.198c-4.223-4.224-11.135-4.224-15.359 0L0-15.359C-4.224-11.135-4.224-4.224 0 0"/><path id="j" d="M0 0l63.158-63.158c4.223-4.223 11.135-4.223 15.359 0l12.839 12.84c4.224 4.223 4.224 11.135 0 15.359L28.198 28.198c-4.223 4.224-11.135 4.224-15.359 0L0 15.359C-4.224 11.135-4.224 4.224 0 0"/><path id="k" d="M0 0h10.167c.536 0 1.033-.274 1.32-.726L114.824-164.09a1.56 1.56 0 0 0-.172-1.893l-.005-.005c-.964-1.044-2.708-.362-2.708 1.059v149.932A15 15 0 0 0 126.937 0h14.674v-199.03c0-7.952-6.447-14.399-14.399-14.399h-12.216a1.56 1.56 0 0 0-1.314.72L10.649-51.838a1.56 1.56 0 0 0 .167 1.9c.964 1.044 2.708.362 2.708-1.058v-160.872a1.56 1.56 0 0 0-1.561-1.561H-.656c-8.556 0-15.491 6.936-15.491 15.491v181.791A16.15 16.15 0 0 0 0 0"/><path id="l" d="M0 0v-33.044c0-6.323 6.64-11.448 14.831-11.448h56.514c8.191 0 14.831-5.126 14.831-11.449v-.469c0-6.323-6.64-11.449-14.831-11.449H14.831C6.64-67.859 0-72.984 0-79.308v-49.674c0-6.323 6.64-11.449 14.831-11.449h88.563c8.19 0 14.83-5.126 14.83-11.449v-1.843c0-6.323-6.64-11.449-14.83-11.449H-20.779c-8.191 0-14.831 5.126-14.831 11.449V24.741c0 6.323 6.64 11.449 14.831 11.449h126.131c8.191 0 14.831-5.126 14.831-11.449v-1.843c0-6.323-6.64-11.449-14.831-11.449H14.831C6.64 11.449 0 6.323 0 0"/></defs><g opacity=".2" clip-path="url(#D)"><path d="M0 0c0-196.848-159.577-356.425-356.425-356.425S-712.851-196.848-712.851 0s159.577 356.425 356.426 356.425S0 196.848 0 0" transform="matrix(1.333333 0 0 -1.333333 1006.5453 558.95)" clip-path="url(#C)" fill="#004369"/></g><g opacity=".8" clip-path="url(#H)"><use href="#h" transform="matrix(1.333333 0 0 -1.333333 1433.9368 941.68867)" clip-path="url(#G)" fill="#004369"/></g><g opacity=".7" clip-path="url(#L)"><use href="#h" transform="matrix(1.333333 0 0 -1.333333 1833.686 1145.8159)" clip-path="url(#K)" fill="#004369"/></g><g opacity=".4" clip-path="url(#P)"><path d="M0 0c0-144.444-117.095-261.538-261.538-261.538S-523.076-144.444-523.076 0s117.094 261.538 261.538 261.538S0 144.443 0 0" transform="matrix(1.333333 0 0 -1.333333 1786.9069 445.19147)" clip-path="url(#O)" fill="#004369"/></g><g opacity=".6" clip-path="url(#T)"><path d="M0 0c0-91.806-74.424-166.23-166.23-166.23S-332.46-91.806-332.46 0s74.424 166.23 166.23 166.23S0 91.806 0 0" transform="matrix(1.333333 0 0 -1.333333 696.5376 1547.1301)" clip-path="url(#S)" fill="#004369"/></g><g fill="#fff"><use href="#i" transform="matrix(1.333333 0 0 -1.333333 1459.0524 1066.0219)" clip-path="url(#U)"/><use href="#j" transform="matrix(1.333333 0 0 -1.333333 1614.3353 1022.7131)" clip-path="url(#V)"/><use href="#i" transform="matrix(1.333333 0 0 -1.333333 1615.4365 909.6376)" clip-path="url(#W)"/><use href="#j" transform="matrix(1.333333 0 0 -1.333333 1457.9511 866.32893)" clip-path="url(#X)"/><path d="M0 0h-90.94c-5.527 0-10.05 4.522-10.05 10.05v12.788c0 5.527 4.523 10.049 10.05 10.049H0c5.527 0 10.05-4.522 10.05-10.049V10.05C10.05 4.522 5.527 0 0 0" transform="matrix(1.333333 0 0 -1.333333 1378.0765 976.68707)" clip-path="url(#Y)"/><use href="#k" transform="matrix(1.333333 0 0 -1.333333 769.89213 846.0132)" clip-path="url(#Z)"/><path d="M0 0l31.828 92.64c.481 1.414 2.466 1.414 2.948 0L66.603 0zm119.293-60.376l-72.83 197.568c-.226.617-.812 1.023-1.474 1.023H31.752c-6.753 0-12.785-4.197-15.116-10.529L-58.21-75.357h19.479A17.98 17.98 0 0 1-21.72-63.219l11.928 34.716h86.187l15.733-45.801c.226-.632.813-1.053 1.489-1.053h15.222c7.747 0 13.131 7.716 10.454 14.981" transform="matrix(1.333333 0 0 -1.333333 1075.4911 1030.3027)" clip-path="url(#a)"/><path d="M0 0c6.707 3.966 11.898 9.596 15.57 16.892s5.508 15.74 5.508 25.338v62.575c0 9.596-1.836 18.042-5.508 25.338S6.707 143.069 0 147.035s-14.469 5.949-23.282 5.949-16.575-1.983-23.282-5.949-11.898-9.598-15.57-16.892-5.508-15.742-5.508-25.338V42.23c0-9.598 1.836-18.044 5.508-25.338S-53.272 3.966-46.564 0s14.469-5.949 23.282-5.949S-6.708-3.966 0 0m-62.648-25.705C-74.008-19.194-82.796-9.988-89.014 1.91s-9.328 25.68-9.328 41.349v60.517c0 15.667 3.109 29.452 9.328 41.35s15.006 21.101 26.366 27.614 24.481 9.769 39.366 9.769 28.006-3.257 39.366-9.769 20.147-15.717 26.367-27.614 9.327-25.683 9.327-41.35V43.259c0-15.669-3.11-29.452-9.327-41.349S27.443-19.194 16.084-25.705s-24.482-9.769-39.366-9.769-28.007 3.255-39.366 9.769" transform="matrix(1.333333 0 0 -1.333333 618.61107 1086.4201)" clip-path="url(#b)"/><use href="#l" transform="matrix(1.333333 0 0 -1.333333 281.122 905.40587)" clip-path="url(#c)"/></g><g fill="#fbd02d"><path d="M0 0l31.828 92.64c.481 1.414 2.466 1.414 2.948 0L66.603 0zm119.293-60.376l-72.83 197.568c-.226.617-.812 1.023-1.474 1.023H31.752c-6.753 0-12.785-4.197-15.116-10.529L-58.21-75.357h19.478A17.98 17.98 0 0 1-21.72-63.219l11.928 34.716h86.187l15.733-45.801c.226-.632.813-1.053 1.489-1.053h15.222c7.747 0 13.131 7.716 10.454 14.981" transform="matrix(1.333333 0 0 -1.333333 1055.8913 1007.0109)" clip-path="url(#d)"/><use href="#k" transform="matrix(1.333333 0 0 -1.333333 750.29227 822.72147)" clip-path="url(#e)"/><path d="M0 0c6.707 3.966 11.898 9.596 15.57 16.892s5.508 15.74 5.508 25.338v62.575c0 9.596-1.836 18.042-5.508 25.338S6.707 143.069 0 147.035s-14.469 5.949-23.282 5.949-16.575-1.983-23.282-5.949-11.898-9.598-15.57-16.892-5.508-15.742-5.508-25.338V42.23c0-9.598 1.836-18.044 5.508-25.338S-53.272 3.966-46.564 0s14.469-5.949 23.282-5.949S-6.708-3.966 0 0m-62.648-25.705C-74.008-19.194-82.796-9.988-89.014 1.91s-9.328 25.68-9.328 41.349v60.517c0 15.667 3.109 29.452 9.328 41.349s15.006 21.102 26.366 27.615 24.481 9.769 39.366 9.769 28.006-3.257 39.366-9.769 20.147-15.717 26.367-27.615 9.327-25.682 9.327-41.349V43.259c0-15.669-3.11-29.452-9.327-41.349S27.443-19.194 16.084-25.705s-24.482-9.769-39.366-9.769-28.007 3.255-39.366 9.769" transform="matrix(1.333333 0 0 -1.333333 599.01133 1063.1285)" clip-path="url(#f)"/><use href="#l" transform="matrix(1.333333 0 0 -1.333333 261.52227 882.11413)" clip-path="url(#g)"/></g></svg>